<svg width="32" height="32" viewBox="0 0 32 32" fill="none" xmlns="http://www.w3.org/2000/svg">
<path d="M12 26.6667C12 28.1333 10.8 29.3333 9.33333 29.3333C7.86666 29.3333 6.66666 28.1333 6.66666 26.6667C6.66666 25.2 7.86666 24 9.33333 24C10.8 24 12 25.2 12 26.6667ZM22.6667 24C21.2 24 20 25.2 20 26.6667C20 28.1333 21.2 29.3333 22.6667 29.3333C24.1333 29.3333 25.3333 28.1333 25.3333 26.6667C25.3333 25.2 24.1333 24 22.6667 24ZM9.59999 19.7333V19.6L10.8 17.3333H20.6667C21.6 17.3333 22.5333 16.8 22.9333 16L28.1333 6.66666L25.8667 5.33332L20.6667 14.6667H11.3333L5.73333 2.66666H1.33333V5.33332H3.99999L8.79999 15.4667L6.93333 18.6667C6.79999 19.0667 6.66666 19.4667 6.66666 20C6.66666 21.4667 7.86666 22.6667 9.33333 22.6667H25.3333V20H9.86666C9.73333 20 9.59999 19.8667 9.59999 19.7333ZM16 12.4L15.2 11.7333C12.5333 9.19999 10.6667 7.59999 10.6667 5.59999C10.6667 3.99999 12 2.66666 13.6 2.66666C14.5333 2.66666 15.4667 3.06666 16 3.73332C16.5333 3.06666 17.4667 2.66666 18.4 2.66666C20 2.66666 21.3333 3.86666 21.3333 5.59999C21.3333 7.59999 19.4667 9.19999 16.8 11.7333L16 12.4Z" fill="white"/>
</svg>
