<svg width="24" height="24" viewBox="0 0 24 24" fill="none" xmlns="http://www.w3.org/2000/svg">
<g opacity="0.5">
<path d="M12 1.5C12.663 1.5 13.2989 1.76339 13.7678 2.23223C14.2366 2.70107 14.5 3.33696 14.5 4C14.5 4.66304 14.2366 5.29893 13.7678 5.76777C13.2989 6.23661 12.663 6.5 12 6.5C11.337 6.5 10.7011 6.23661 10.2322 5.76777C9.7634 5.29893 9.50001 4.66304 9.50001 4C9.50001 3.33696 9.7634 2.70107 10.2322 2.23223C10.7011 1.76339 11.337 1.5 12 1.5ZM15.87 5C18 5 20 7 20 9C22.7 9 22.7 13 20 13H4.00001C1.30001 13 1.30001 9 4.00001 9C4.00001 7 6.00001 5 8.13001 5C8.57001 6.73 10.14 8 12 8C13.86 8 15.43 6.73 15.87 5ZM5.00001 15H8.00001L9.00001 22H7.00001L5.00001 15ZM10 15H14L13 22H11L10 15ZM16 15H19L17 22H15L16 15Z" fill="#1A141F"/>
</g>
</svg>
