<svg width="21" height="15" viewBox="0 0 21 15" fill="none" xmlns="http://www.w3.org/2000/svg">
<path fill-rule="evenodd" clip-rule="evenodd" d="M10.3337 3.57388C12.5585 3.57397 14.6981 4.41166 16.3105 5.91382C16.4319 6.02979 16.626 6.02833 16.7456 5.91054L17.9062 4.7627C17.9667 4.70296 18.0005 4.62204 18 4.53784C17.9995 4.45364 17.9648 4.37311 17.9035 4.31407C13.6716 0.339729 6.99523 0.339729 2.76331 4.31407C2.70201 4.37307 2.66723 4.45357 2.66666 4.53777C2.6661 4.62197 2.6998 4.70292 2.7603 4.7627L3.92125 5.91054C4.04075 6.0285 4.23497 6.02997 4.35631 5.91382C5.96888 4.41157 8.10879 3.57387 10.3337 3.57388ZM10.3321 7.29943C11.5559 7.29936 12.7359 7.75596 13.643 8.58052C13.7657 8.69754 13.959 8.695 14.0786 8.5748L15.2392 7.39764C15.3003 7.33589 15.3342 7.25213 15.3333 7.16509C15.3324 7.07805 15.2968 6.995 15.2345 6.93451C12.4722 4.35514 8.19444 4.35514 5.43215 6.93451C5.36976 6.995 5.33416 7.07809 5.33334 7.16516C5.33252 7.25223 5.36655 7.33598 5.4278 7.39764L6.58805 8.5748C6.70764 8.695 6.90091 8.69754 7.0236 8.58052C7.93009 7.7565 9.10922 7.29994 10.3321 7.29943ZM12.6666 10.023C12.6684 10.1085 12.6341 10.1909 12.5718 10.2507L10.557 12.2419C10.498 12.3004 10.4174 12.3333 10.3334 12.3333C10.2494 12.3333 10.1689 12.3004 10.1098 12.2419L8.09471 10.2507C8.03246 10.1908 7.99822 10.1084 8.00006 10.023C8.00191 9.9375 8.03968 9.85658 8.10446 9.79929C9.39116 8.73354 11.2757 8.73354 12.5624 9.79929C12.6271 9.85662 12.6648 9.93757 12.6666 10.023Z" fill="black"/>
</svg>
